<svg id="Layer_1" enable-background="new 0 0 512 512" height="512" viewBox="0 0 512 512" width="512" xmlns="http://www.w3.org/2000/svg"><g><g id="XMLID_24_"><g><g id="XMLID_1163_"><g id="XMLID_1164_"><g id="XMLID_1165_"><g id="XMLID_1166_"><g id="XMLID_1167_"><g id="XMLID_1168_"><g id="XMLID_1169_"><g id="XMLID_1170_"><g id="XMLID_1171_"><g id="XMLID_1174_"><g id="XMLID_1175_"><g id="XMLID_1176_"><g id="XMLID_1177_"><g id="XMLID_1178_"><circle cx="256" cy="256" fill="#5eefee" r="256"/></g></g></g></g></g></g></g></g></g></g></g></g></g></g></g></g><path d="m512 256c0-4.545-.123-9.061-.357-13.548l-118.221-118.221-269.191 269.191 118.221 118.221c4.487.234 9.003.357 13.548.357 141.385 0 256-114.615 256-256z" fill="#54c9fc"/><g><circle cx="256" cy="256" fill="#ff807d" r="190.395"/><path d="m446.39 256c0 105.15-85.24 190.39-190.39 190.39v-380.78c105.15 0 190.39 85.24 190.39 190.39z" fill="#fc3e53"/><path d="m256 117.112 40.818 82.707 91.272 13.262-66.045 64.378 15.591 90.903-81.636-42.918-81.636 42.918 15.591-90.903-66.045-64.378 91.272-13.262z" fill="#fedd55"/><path d="m322.04 277.46 15.6 90.9-81.64-42.92v-208.33l40.82 82.71 91.27 13.26z" fill="#fcc63d"/></g></g></svg>