<svg id="Layer_1" enable-background="new 0 0 512 512" height="512" viewBox="0 0 512 512" width="512" xmlns="http://www.w3.org/2000/svg"><g><g id="XMLID_33_"><g><g id="XMLID_1379_"><g id="XMLID_1380_"><g id="XMLID_1381_"><g id="XMLID_1382_"><g id="XMLID_1383_"><g id="XMLID_1384_"><g id="XMLID_1385_"><g id="XMLID_1386_"><g id="XMLID_1387_"><g id="XMLID_1388_"><g id="XMLID_1389_"><g id="XMLID_1390_"><g id="XMLID_1391_"><g id="XMLID_1392_"><circle cx="256" cy="256" fill="#238cf8" r="256"/></g></g></g></g></g></g></g></g></g></g></g></g></g></g></g></g><path d="m512 256c0-11.666-.796-23.145-2.308-34.397l-41.295-41.294-355.757 27.108 70.847 70.847-91.937 142.185 75.764 75.764c27.633 10.206 57.507 15.787 88.686 15.787 141.385 0 256-114.615 256-256z" fill="#0768dd"/><g><path d="m180.337 267.406-88.787 153.043 153.043-88.787z" fill="#fff"/><path d="m244.594 331.667-4.879 2.829-148.168 85.956 120.916-120.916z" fill="#eae1dc"/><g><path d="m380.869 224.432 35.036-35.036-93.302-93.302-35.036 35.036c-9.394 9.394-20.555 16.836-32.839 21.896l-99.298 40.907 162.635 162.634 40.907-99.298c5.061-12.282 12.503-23.443 21.897-32.837z" fill="#fedd55"/><path d="m318.062 356.572-81.317-81.317 132.512-132.512 46.648 46.648-35.037 35.037c-9.398 9.397-16.836 20.556-21.899 32.845l-33.976 82.484z" fill="#fcc63d"/><path d="m286.785 105.082h193.333v46.931h-193.333z" fill="#fdb556" transform="matrix(.707 .707 -.707 .707 203.207 -233.491)"/><g><path d="m394.165 114.39h46.93v96.67h-46.93z" fill="#fd9126" transform="matrix(.707 -.707 .707 .707 7.257 342.971)"/></g><path d="m92.893 255.093h271.447v56.58h-271.447z" fill="#fdb556" transform="matrix(.707 .707 -.707 .707 267.342 -78.655)"/><path d="m248.307 263.51h56.58v135.72h-56.58z" fill="#fd9126" transform="matrix(.707 -.707 .707 .707 -153.301 292.64)"/></g></g></g></svg>