<svg id="Layer_1" enable-background="new 0 0 512 512" height="512" viewBox="0 0 512 512" width="512" xmlns="http://www.w3.org/2000/svg"><g><g><g id="XMLID_1353_"><g id="XMLID_1354_"><g id="XMLID_1355_"><g id="XMLID_1356_"><g id="XMLID_1357_"><g id="XMLID_1360_"><g id="XMLID_1361_"><g id="XMLID_1362_"><g id="XMLID_1363_"><g id="XMLID_1364_"><g id="XMLID_1365_"><g id="XMLID_1366_"><g id="XMLID_1367_"><g><path d="m512 256c0 141.38-114.62 256-256 256s-256-114.62-256-256c0-59.03 19.99-113.4 53.56-156.7 16.366-21.121 35.968-20.518 58.06-35.633 17.174-11.751 35.854-40.555 55.69-47.877 27.63-10.21 57.51-15.79 88.69-15.79s61.06 5.58 88.69 15.79c26.141 9.649 27.921 45.801 49.248 62.949 15.672 12.602 52.18 4.659 64.502 20.561 33.57 43.3 53.56 97.67 53.56 156.7z" fill="#776d6b"/></g></g></g></g></g></g></g></g></g></g></g></g></g></g></g><path d="m512 256c0-59.03-19.99-113.4-53.56-156.7-12.322-15.901-48.831-7.959-64.502-20.561-21.326-17.149-23.107-53.3-49.248-62.949l-66.023 107.877-111.357-107.877 2.518 403.085 93.032 93.032c138.209-3.637 249.14-116.821 249.14-255.907z" fill="#57555c"/><g><path d="m370.2 288.42h-175.9l-26.25-35.27-114.49-153.85c29.09-37.54 68.4-66.77 113.75-83.51l88.69 119.17 87.95 118.19z" fill="#5eefee"/><path d="m458.44 99.3-114.49 153.85-26.25 35.27h-175.9l26.25-35.27 87.95-118.19 88.69-119.17c45.35 16.74 84.66 45.97 113.75 83.51z" fill="#54c9fc"/><path d="m458.44 99.3-106.87 143.62-7.62 10.23-23.86 32.05-2.39 3.22h-61.7v-153.46l88.69-119.17c45.35 16.74 84.66 45.97 113.75 83.51z" fill="#238cf8"/></g><circle cx="256" cy="326.051" fill="#fedd55" r="126.665"/><path d="m382.67 326.05c0 69.96-56.71 126.67-126.67 126.67v-253.33c38.14 0 72.35 16.86 95.57 43.53 19.37 22.25 31.1 51.32 31.1 83.13z" fill="#fcc63d"/><path d="m311.145 343.727c-5.088 8.23-11.692 13.249-16.747 12.397-2.733-.461-4.54-2.098-4.54-2.098-1.819-1.829-2.898-4.521-2.885-7.201l.099-20.06c.016-.548.033-1.096.033-1.649 0-.347-.013-.688-.02-1.033l.22-44.478-15-.074-.056 11.278c-5.307-4.085-11.77-6.398-18.961-6.398-17.689 0-35.987 15.304-35.987 40.913 0 23.357 15.819 42.36 35.264 42.36 8.453 0 16.106-3.563 22.048-9.561 1.18 2.389 2.728 4.59 4.612 6.483 4.183 4.203 9.57 6.518 15.173 6.518 16.215 0 26.482-11.288 30.685-21.853 5.711-14.352 7.322-26.727 5.027-39.37-.328-1.806-.735-3.618-1.222-5.441-.021-.077-.043-.155-.066-.232-5.895-19.531-19.083-35.524-37.136-45.032-18.05-9.507-38.705-11.331-58.161-5.138-18.435 5.868-33.772 18.52-43.186 35.624-9.417 17.109-11.894 36.835-6.973 55.542 4.261 16.204 13.462 30.183 26.609 40.426 12.658 9.861 28.425 15.536 44.396 15.977l7.497.207.414-14.994-7.497-.207c-26.702-.738-50.105-19.335-56.914-45.224-3.937-14.97-1.945-30.772 5.607-44.495 7.553-13.722 19.839-23.866 34.596-28.563 15.596-4.965 32.153-3.503 46.62 4.116 7.271 3.83 13.558 8.972 18.614 15.128 2.757 3.357 8.434 10.348 11.11 20.83.084.329.15.602.194.788.973 4.062 1.979 10.383 1.138 18.037-.787 7.165-2.896 12.803-4.605 16.477zm-58.578 8.96c-9.745 0-20.264-10.461-20.264-27.36 0-16.221 10.671-25.913 20.987-25.913 10.786 0 18.401 10.02 18.797 24.514l-.014 2.74c-.57 14.483-9.1 26.019-19.506 26.019z" fill="#fdb556"/><path d="m311.15 343.73c-5.09 8.233-11.695 13.253-16.75 12.4-2.734-.461-4.54-2.1-4.54-2.1-1.82-1.83-2.9-4.52-2.88-7.2l.09-20.06c.02-.55.04-1.1.04-1.65 0-.35-.02-.69-.02-1.03l.18-35.67.04-8.81-15-.08-.05 8.89-.01 2.39c-1.15-.88-2.35-1.68-3.6-2.39-3.79-2.17-8.05-3.52-12.65-3.89v15.11c9.34 1.53 15.72 11.04 16.09 24.29l-.02 2.74c-.51 12.85-7.28 23.38-16.07 25.59v15.23c7.09-.82 13.49-4.19 18.62-9.36 1.18 2.38 2.72 4.59 4.61 6.48 4.18 4.2 9.57 6.52 15.17 6.52 16.22 0 26.48-11.29 30.68-21.86 5.71-14.35 7.32-26.73 5.03-39.37-.33-1.81-.74-3.62-1.22-5.44-.02-.08-.05-.16-.07-.23-2.05-6.82-5-13.2-8.73-19.03-6.96-10.88-16.65-19.82-28.4-26.01-11.2-5.89-23.4-8.83-35.69-8.74v15.01c9.89-.09 19.7 2.27 28.7 7.01 7.59 4 14.11 9.43 19.27 15.95 2.669 3.372 7.931 10.046 10.45 20.01.082.325.147.595.19.78.974 4.064 1.979 10.386 1.14 18.04-.785 7.165-2.892 12.804-4.6 16.48zm-55.15 57.94 5.87.16.41-14.99-6.28-.18z" fill="#fd9126"/></g></svg>